# xmcd
#
# Track frame offsets: 
#        225
#        13468
#        25077
#        39722
#        65612
#        82351
#        102093
#        125892
#        137497
#        156320
#        175072
#
# Disc length: 2581 seconds
#
# Revision: 0
# Processed by: cddbd v1.5.1PL0 Copyright (c) Steve Scherf et al.
# Submitted via: ExactAudioCopy v0.95a5
#
DISCID=9d0a120b
DTITLE=Hillstomp - The Woman that Ended the World
DYEAR=2005
DGENRE=Blues
TTITLE0=Poor Black Mattie
TTITLE1=Momma Told Papa
TTITLE2=Can't Be Satisfied
TTITLE3=In the Hole
TTITLE4=Shake It
TTITLE5=Jackson Parole Board Blues
TTITLE6=You Done Told Everybody
TTITLE7=Boom Boom Room East Blues
TTITLE8=N.E. Portland 3 a.m.
TTITLE9=Deep Knee Blues
TTITLE10=Coal Black Mattie
EXTD=
EXTT0=
EXTT1=
EXTT2=
EXTT3=
EXTT4=
EXTT5=
EXTT6=
EXTT7=
EXTT8=
EXTT9=
EXTT10=
PLAYORDER=
